<?xml version="1.0" encoding="UTF-8"?>
<svg xmlns="http://www.w3.org/2000/svg" viewBox="0 0 1095 1095" width="1095" height="1095">
<path d="M580.93 238.88C584.64 241.5 592.84 243.88 597.43 243.64C598.43 244 599.44 244.35 600.44 244.71C600.46 245.13 600.48 245.55 600.5 245.98C602.04 246.25 603.59 246.53 605.13 246.81C608.56 248.44 612 250.08 615.43 251.71C615.45 252.13 615.48 252.55 615.5 252.97C617.14 253.49 618.77 254.02 620.41 254.54C629.03 257.73 648.09 273.15 653.18 280.93C653.92 282.12 654.66 283.31 655.4 284.5C655.68 284.48 655.97 284.46 656.25 284.44C660.54 287.77 663.28 292.78 666.39 297.17C675.02 309.35 684.57 324.83 687.36 339.63C687.69 341.92 688.02 344.21 688.34 346.5C688.66 346.48 688.98 346.45 689.3 346.43C692.38 352.87 693.37 362.83 693.36 370C693.37 377.67 693.39 385.33 693.4 393C693.26 394.33 693.12 395.65 692.98 396.98C692.8 398.78 692.62 400.59 692.43 402.39C691 423.19 680.96 443.3 670.41 460.86C666.37 467.57 660.4 473.11 656.07 479.64C654.27 482.35 653.48 485.23 652.21 488.04C651.95 488.19 651.69 488.35 651.43 488.5C651.39 491.17 651.34 493.83 651.29 496.5C651.61 496.62 651.94 496.73 652.26 496.85C652.58 497.79 652.91 498.74 653.24 499.68C653.32 502.42 653.64 503.6 656.24 504.62C658.23 506.35 660.22 508.09 662.2 509.82C662.3 510.3 662.4 510.79 662.5 511.28C665.45 512.15 668.41 513.02 671.36 513.89C675.96 517.65 686.02 518.28 691.89 517.93C695.51 519.8 708.87 519.8 712.16 517.67C712.44 517.62 712.72 517.57 713 517.52C720.99 518.66 729.63 515.98 737.29 513.69C740.37 512.77 743.87 512.17 745.76 509.86C747.34 509.49 748.92 509.11 750.5 508.74C750.5 508.42 750.5 508.1 750.5 507.77C753.44 505.65 757.04 504.53 760.21 502.66C769.02 497.44 777.48 491.38 785.09 484.5C805.21 466.3 814.67 440.8 820.16 415C823.15 408.58 821.72 398.64 821.71 391.5C821.7 380.49 822 369.49 822 358.5C822 352.2 821.47 345.75 821.92 339.5C820.58 338.02 820.94 338.22 818.9 338.09C808.84 333.57 798.88 325.75 796.62 314.27C796.61 312.68 796.6 311.09 796.59 309.5C796.32 309.35 796.05 309.19 795.77 309.04C792.36 291.85 807.77 272.78 825 271.48C828.33 271.5 831.67 271.53 835 271.56C844.47 272.31 854.09 278.22 858.47 286.72C858.98 288.31 859.48 289.91 859.99 291.5C860.42 291.56 860.85 291.63 861.28 291.69C862.03 294.46 862.77 297.23 863.52 300C863.52 303.81 863.52 307.62 863.51 311.43C862.89 321.41 854.99 331.24 846.26 335.68C843.78 336.94 840.81 337.52 838.18 338.36C837.19 338.74 836.2 339.12 835.22 339.5C835.27 362.11 835.33 384.72 835.39 407.33C835.29 409.18 835.2 411.04 835.1 412.89C834.84 413.09 834.58 413.3 834.32 413.5C834.37 415.33 834.43 417.17 834.48 419C834.39 419.62 834.29 420.24 834.2 420.86C833.85 421.08 833.5 421.29 833.15 421.5C833.14 423.1 833.13 424.7 833.13 426.3C832.88 426.37 832.63 426.43 832.38 426.5C832.33 428.08 832.27 429.66 832.22 431.24C830.58 436.72 828.93 442.2 827.29 447.68C826.99 447.62 826.69 447.56 826.39 447.5C826.05 449.11 825.71 450.72 825.36 452.32C822.05 464.06 812.66 477.07 804.78 486.32C779.07 516.48 741.38 534.42 701.5 533.65C677.05 533.17 638.24 527.59 636.62 496C636.57 493 636.52 490 636.47 487C637.65 472.89 648.8 462.83 656.22 451.68C664.16 439.76 669.75 425.81 673.46 412.06C687.13 361.48 663.48 305.85 621.91 275.55C604.77 263.06 586.22 257.57 565.85 253.22C565.74 252.98 565.62 252.73 565.5 252.49C563.67 252.46 561.83 252.43 560 252.4C557.67 252.17 555.33 251.95 553 251.72C552.83 251.48 552.67 251.24 552.5 251C549.5 251 546.5 251 543.5 251C543.33 251.3 543.17 251.59 543 251.89C540.67 252.07 538.33 252.24 536 252.41C533.83 252.36 531.67 252.31 529.5 252.26C529.3 252.62 529.09 252.98 528.89 253.34C520.37 256.09 511.24 256.98 502.82 260.3C493.55 263.96 484.87 268.72 476.43 273.99C472.49 276.45 469.01 279.79 465.05 282.08C463.53 283.09 462.02 284.09 460.5 285.09C460.49 285.5 460.48 285.9 460.46 286.3C458.25 289.48 455.04 292.03 452.41 294.96C447.22 300.72 442.17 306.94 438.13 313.58C432.49 322.85 427.96 332.68 424.58 343.01C423.05 347.69 422.18 352.62 420.27 357.15C420 357.27 419.74 357.38 419.48 357.5C419.43 359.44 419.39 361.38 419.35 363.33C419.29 363.51 419.23 363.69 419.18 363.87C418.86 364.08 418.54 364.29 418.22 364.5C418.26 366.8 418.3 369.11 418.35 371.41C418.26 371.93 418.17 372.44 418.08 372.96C416.59 376.14 416.44 389.96 418.31 392.85C418.33 393.24 418.36 393.62 418.39 394C418.37 396.17 418.34 398.33 418.32 400.5C418.62 400.67 418.91 400.84 419.21 401.02C419.28 401.21 419.34 401.41 419.41 401.61C419.42 403.24 419.43 404.87 419.44 406.5C419.7 406.44 419.96 406.38 420.22 406.32C422.45 411.04 423.23 416.89 424.76 422C426.88 429.07 430.26 436.31 433.71 442.82C441.12 456.76 456.29 468.49 458.38 484.7C458.41 489.24 458.45 493.78 458.48 498.32C455.77 515.76 438.72 529.07 421.43 530.47C419.12 530.64 416.81 530.82 414.5 531C414.33 531.3 414.17 531.6 414 531.9C404.52 533.87 394.13 533.5 384.5 532.96C378.61 532.62 372.3 532.52 366.5 531.38C308.79 520.03 258.83 465.37 259.59 405.34C259.4 385.23 259.22 365.12 259.03 345.01C259.02 344.32 259.02 343.63 259.01 342.94C259.19 342.8 259.37 342.65 259.55 342.5C259.2 340.98 258.85 339.46 258.5 337.94C257.95 338.05 257.39 338.16 256.84 338.27C245.52 335.04 232.48 323.76 231.62 311.43C231.61 307.62 231.6 303.81 231.59 300C230.98 286.68 248.24 271.8 261 271.48C264.45 271.54 267.9 271.6 271.35 271.66C276.28 272.16 282.06 274.06 285.5 277.79C285.5 278.08 285.5 278.37 285.5 278.65C286.69 279.39 287.88 280.12 289.07 280.86C291.1 283.55 293.12 286.24 295.14 288.93C295.45 290.45 295.76 291.98 296.07 293.5C296.47 293.5 296.87 293.5 297.27 293.5C297.64 294.66 298 295.83 298.37 297C298.32 302.36 298.28 307.72 298.23 313.08C297.97 313.22 297.71 313.36 297.44 313.5C297.07 315.43 296.7 317.37 296.33 319.3C293.53 327.76 284.97 335.31 276.37 337.49C275.29 337.83 274.22 338.16 273.14 338.5C273.09 340.5 273.05 342.5 273 344.5C273.26 344.67 273.51 344.83 273.77 345C273.75 345.33 273.73 345.67 273.72 346C273.72 364 273.72 382 273.72 400C273.93 402.34 274.15 404.67 274.37 407.01C274.06 407.17 273.76 407.34 273.45 407.5C274.08 412.17 274.7 416.83 275.32 421.5C275.64 421.65 275.96 421.81 276.28 421.96C278.26 428.89 280.25 435.82 282.24 442.74C282.58 444.33 282.92 445.91 283.27 447.5C283.6 447.48 283.93 447.47 284.26 447.45C284.92 448.9 285.57 450.35 286.22 451.81C286.34 454.16 286.31 454.64 288.2 455.75C290.89 460.11 293.58 464.47 296.28 468.82C296.72 471.07 297.12 471.77 299.23 472.56C299.58 473 299.93 473.44 300.27 473.88C300.73 476.07 301.18 476.71 303.24 477.51C311.04 484.49 318.22 491.69 326.84 497.78C333.75 502.67 342.04 505.33 349 509.77C349.16 510.13 349.33 510.49 349.5 510.85C351.08 511.13 352.65 511.41 354.23 511.69C357.57 512.69 360.91 513.7 364.24 514.71C364.33 514.99 364.41 515.27 364.5 515.55C365.98 515.66 367.45 515.77 368.93 515.88C369.12 516.15 369.31 516.41 369.5 516.68C370.98 516.74 372.46 516.81 373.94 516.87C374.13 517.15 374.31 517.44 374.5 517.72C376.67 517.66 378.83 517.6 381 517.55C381.28 517.6 381.57 517.66 381.85 517.72C385.32 519.73 399.81 519.87 403.14 517.68C403.43 517.63 403.71 517.58 404 517.53C409.42 518.43 419.75 517.46 423.75 513.69C424.69 513.34 425.63 512.99 426.57 512.64C428.21 512.32 429.86 512.01 431.5 511.69C431.47 511.37 431.45 511.04 431.42 510.72C436.96 506.4 440.25 502.71 443.03 496.13C443.35 493.92 443.68 491.71 444 489.5C443.7 489.45 443.41 489.39 443.11 489.34C440.71 479.73 434.06 473.02 428.26 465.28C425.25 461.27 422.62 456.74 420 452.46C409.55 435.36 401 407.95 401.48 388C401.5 383 401.52 378 401.53 373C401.61 362.23 404.2 351.25 407.46 341.03C417.62 309.14 436.72 280.28 464.3 260.87C474.93 253.38 490.76 243.39 503.72 241.7C505.98 241.36 508.24 241.01 510.5 240.67C510.67 240.39 510.84 240.11 511 239.83C513.84 239.4 516.67 238.97 519.5 238.54C519.64 238.3 519.77 238.06 519.91 237.82C524.76 237.88 529.68 236.83 534.53 236.22C541.64 235.32 549.34 235.21 556.5 235.67C564.57 236.18 572.98 239.23 580.93 238.88ZM246.28 299.45C245.92 299.47 245.56 299.48 245.2 299.5C244.31 303.81 244.22 307.24 245.37 311.5C245.66 311.47 245.96 311.44 246.25 311.41C249.71 318.09 253.9 321.54 260.61 324.76C260.57 325.01 260.54 325.27 260.5 325.52C263.5 325.68 266.5 325.84 269.5 326C269.53 325.68 269.56 325.37 269.59 325.05C277.47 321.46 282.2 316.93 285.12 308.67C285.41 308.62 285.71 308.56 286 308.5C285.83 305.83 285.67 303.17 285.5 300.5C285.27 300.59 285.03 300.68 284.8 300.76C283.52 297.9 282.6 294.61 280.45 292.09C274.53 285.12 262.45 282.98 254.72 288.12C250.68 290.81 248.69 295.64 246.28 299.45ZM810 301.84C809.77 302.06 809.54 302.28 809.31 302.5C809.32 305.17 809.34 307.83 809.36 310.5C809.62 310.55 809.88 310.59 810.14 310.64C810.36 315.19 813.54 320.95 818.15 321.87C819.49 324.36 821.36 324.86 824.25 324.91C824.33 325.18 824.42 325.45 824.5 325.72C828.17 325.69 831.83 325.66 835.5 325.63C835.44 325.33 835.38 325.03 835.32 324.73C842.92 320.86 847.43 316.55 849.6 308.01C849.93 307.84 850.25 307.67 850.58 307.5C850.32 304.83 850.05 302.17 849.78 299.5C849.45 299.31 849.11 299.13 848.77 298.94C843.94 290.16 836.39 283.66 825.55 286.15C823.34 286.65 820.94 287.15 819.09 288.51C814.25 292.03 812.23 296.52 810 301.84ZM482.57 420.48C486.76 421.25 490.95 422.03 495.14 422.8C501.51 426.15 505.16 435.22 505.32 442C505.33 444.33 505.35 446.67 505.36 449C504.67 459.29 494.93 467.49 484.76 461.72C472 454.49 464.21 425.08 482.57 420.48ZM604.61 420.56C607.53 420.59 610.45 420.63 613.37 420.66C615.98 421.35 617.8 422.5 619.27 424.8C619.98 426.7 620.7 428.6 621.41 430.5C621.68 430.44 621.96 430.37 622.23 430.31C627.1 442.46 615.74 468.73 599.7 462.75C582.48 456.33 589 424.84 604.61 420.56ZM193 513.56C204.65 514.54 215.5 526.66 217.36 537.84C216.65 545.34 219.27 545.26 226 544.53C228.59 544.94 231.17 545.35 233.76 545.77C233.67 546.01 233.59 546.26 233.5 546.51C235 546.59 236.5 546.68 238.01 546.77C238.17 547.06 238.34 547.35 238.5 547.64C240.13 547.64 241.77 547.64 243.4 547.65C244.35 548.01 245.3 548.37 246.25 548.73C246.33 549.02 246.42 549.31 246.5 549.59C248.48 549.91 250.46 550.22 252.43 550.53C258.4 552.93 264.37 555.34 270.34 557.75C270.4 558.16 270.45 558.58 270.5 559C272.11 559.52 273.72 560.04 275.33 560.57C282.7 562.8 289.41 568.5 295.71 572.87C300.76 576.37 306.42 579.29 311.33 582.78C311.39 583.18 311.44 583.58 311.5 583.98C313.11 584.51 314.72 585.04 316.34 585.57C317.24 585.88 318.14 586.19 319.05 586.5C318.98 586.61 318.92 586.72 318.86 586.83C320.28 588.69 320.76 588.73 323.14 588.82C329.02 590.18 334.17 593.62 340 595.25C344.58 596.53 349.45 597.29 353.91 598.92C354.11 599.21 354.3 599.49 354.5 599.77C356.12 599.73 357.74 599.7 359.36 599.66C359.6 599.71 359.83 599.76 360.06 599.82C360.21 600.07 360.35 600.32 360.5 600.58C362.33 600.57 364.17 600.57 366 600.57C368.67 600.77 371.33 600.98 374 601.19C374.17 601.46 374.33 601.73 374.5 602C375.83 602 377.17 602 378.5 602C378.67 601.71 378.83 601.42 379 601.13C381.33 600.94 383.67 600.75 386 600.56C388.5 600.55 391 600.54 393.5 600.53C393.64 600.3 393.77 600.07 393.91 599.84C395.44 599.85 396.97 599.85 398.5 599.85C398.71 599.48 398.92 599.12 399.14 598.75C398.99 598.67 398.85 598.58 398.7 598.5C402.66 597.58 406.62 596.66 410.58 595.74C413.34 595.89 414.93 595.62 417 594C418.5 593.59 420 593.19 421.5 592.78C421.5 592.43 421.5 592.08 421.49 591.73C422.95 591.1 424.4 590.47 425.86 589.84C427.74 589.21 429.62 588.58 431.5 587.95C431.56 587.56 431.61 587.17 431.67 586.78C434.73 584.05 438.75 582.2 442.12 579.72C448.52 575 454.59 569.2 459.38 562.85C462.4 558.84 465.5 554.77 467.86 550.32C470.45 545.44 471.75 540.4 476.02 536.7C478.12 536.65 480.21 536.6 482.3 536.55C486.77 538.79 486.86 543.41 485.54 547.96C483.15 556.14 477.76 563.54 473.05 570.49C459 591.21 435.65 604.93 412 611.72C406.28 613.36 399.9 615.35 394 615.39C391.11 614.86 388.32 614.79 385.88 616.16C384.92 616.23 383.96 616.3 383 616.37C379 616.38 375 616.38 371 616.39C369.33 616.22 367.67 616.05 366 615.88C365.83 615.59 365.67 615.29 365.5 615C363.86 615.17 362.23 615.34 360.59 615.51C338.93 613.27 316.74 604.71 298.17 593.37C286.44 586.21 275.49 577.38 262.98 571.54C256.16 568.35 248.69 565.24 241.42 563.27C234.19 561.32 226.66 560.5 219.5 558.4C213.96 561.89 215.02 563.37 211.36 567.92C206.26 574.26 198.39 578.64 190.37 579.38C187.58 579.39 184.79 579.4 182 579.41C150.95 579.03 140.73 535.95 165.16 518.77C168.51 516.41 171.56 514.34 175.59 513.6C181.4 513.58 187.2 513.57 193 513.56ZM919 513.57C920.1 513.94 921.21 514.32 922.31 514.7C922.37 514.97 922.44 515.25 922.5 515.52C924.44 516.22 926.37 516.92 928.31 517.62C929.38 518.31 930.46 519 931.54 519.69C931.53 520.08 931.51 520.46 931.5 520.84C932.1 521.4 932.7 521.95 933.3 522.5C933.63 522.47 933.97 522.43 934.3 522.4C939.46 526.26 943.01 534.3 943.4 540.63C943.38 544.5 943.36 548.36 943.34 552.23C942.9 557.51 940.9 562.62 937.23 566.48C936.9 566.49 936.57 566.49 936.24 566.5C935.54 567.69 934.83 568.87 934.13 570.06C930.44 575.8 921.7 578.65 915.23 579.36C912.37 579.37 909.5 579.38 906.64 579.39C895.26 578.51 884.21 570.52 879.35 560.33C879.4 559.84 879.45 559.35 879.5 558.85C877.83 558.57 876.17 558.28 874.5 558C874.33 558.33 874.17 558.65 874 558.98C873.4 559.1 872.79 559.23 872.19 559.36C870.29 559.4 868.4 559.43 866.5 559.47C866.38 559.74 866.25 560.01 866.13 560.27C861.86 561.29 857.6 562.31 853.34 563.33C850.39 564.01 847.45 564.69 844.5 565.37C844.56 565.68 844.63 565.99 844.69 566.31C836.81 570.7 827.91 573.71 820.04 578.64C803.84 588.8 788.69 599.2 770.8 606.34C765.77 608.35 760.67 610.49 755.37 611.35C752.74 611.71 750.12 612.08 747.5 612.44C747.42 612.73 747.35 613.02 747.27 613.31C742.85 614.04 738.42 614.76 734 615.48C731.83 615.48 729.67 615.48 727.5 615.48C727.33 615.7 727.16 615.92 726.99 616.15C725.99 616.22 725 616.29 724 616.36C721 616.38 718 616.4 715 616.42C713.04 616.27 711.08 616.12 709.11 615.97C707.41 615.82 705.7 615.66 704 615.51C680.88 615.18 650.74 600.32 634.05 584.49C629.73 580.39 626.31 575.48 622.66 570.8C617.87 564.66 607.19 548.52 609.25 540.66C609.73 538.85 611.44 537.61 612.84 536.59C614.99 536.58 617.14 536.56 619.3 536.55C624.2 539.54 625.05 545.82 627.78 550.65C630.15 554.82 632.69 559.01 635.72 562.75C638.5 566.17 641.96 569.15 644.43 572.71C644.46 573.17 644.48 573.62 644.5 574.07C646.39 575.29 648.27 576.52 650.16 577.74C654.57 580.75 658.98 583.76 663.4 586.77C663.43 587.13 663.47 587.49 663.5 587.85C666.26 589.47 668.17 590.72 671.29 590.74C679.35 593.43 687.42 596.12 695.49 598.82C695.49 599.09 695.5 599.36 695.5 599.63C697.47 599.71 699.45 599.79 701.42 599.88C701.45 600.09 701.47 600.31 701.5 600.52C704 600.55 706.5 600.57 709 600.6C710.96 600.74 712.92 600.88 714.88 601.02C716.93 601.01 718.97 601 721.02 600.98C722.68 600.87 724.34 600.76 726 600.65C731.15 601.79 741.78 600.97 745.91 597.68C747.61 597.29 749.3 596.9 751 596.51C752.83 596.26 754.67 596 756.5 595.75C756.62 595.41 756.73 595.07 756.85 594.73C761.04 591.73 767.14 590.4 771.99 588.38C776.75 586.39 781.35 583.8 785.88 581.36C795.39 576.23 803.76 567.59 813.63 563.57C816.59 563.38 819.23 562.15 820.88 559.86C824.46 556.83 829.63 555.16 834.04 553.41C844.33 549.32 855.89 544.88 867 544.72C870.52 545.11 874.19 545.1 877.43 543.5C877.51 542.33 877.58 541.17 877.66 540C878.85 527.47 889.27 516.11 901.57 513.53C907.38 513.54 913.19 513.55 919 513.57ZM173.27 530.33C170.59 530.85 169.84 531.68 169.29 534.3C168.29 536.35 167.3 538.41 166.31 540.47C165.92 540.48 165.53 540.49 165.14 540.5C164.89 543.17 164.63 545.83 164.38 548.5C164.7 548.71 165.03 548.92 165.36 549.14C166.68 552.81 168.14 556.79 170.93 559.65C172.06 560.8 173.43 561.49 174.42 562.68C176.88 568.53 193.14 568.54 195.51 562.7C196.57 561.98 197.62 561.25 198.68 560.53C201.01 559.83 201.36 559.2 201.76 556.78C202.41 555.28 203.07 553.77 203.73 552.27C203.99 552.35 204.25 552.42 204.52 552.5C205.99 547.32 205.79 542.56 203.86 537.5C203.49 537.46 203.12 537.42 202.76 537.38C201.16 535.62 199.91 533.22 198.05 531.62C189.55 524.29 182.41 526.55 173.27 530.33ZM894.25 534.45C893.88 534.47 893.5 534.48 893.13 534.5C892.44 536.39 891.76 538.29 891.08 540.18C888.17 544.07 889.06 555.52 894.11 557.86C894.84 560.71 896.36 562.15 899.25 562.79C900.71 565.34 902.98 565.96 905.93 565.93C906.12 566.2 906.31 566.48 906.5 566.75C910.75 566.99 916.08 567.37 919 563.9C922.29 561.3 925.57 558.88 927.89 555.26C935.63 543.17 926.21 532.91 916.32 527.26C916.38 526.96 916.44 526.66 916.5 526.36C915 526.36 913.5 526.36 912 526.36C901.81 527.71 901.96 528.69 894.25 534.45ZM530.36 551.82C530.03 557.03 529.71 562.23 529.38 567.43C529.33 567.61 529.28 567.78 529.23 567.96C528.96 568.14 528.69 568.32 528.42 568.5C528.39 570.13 528.37 571.76 528.34 573.38C527.8 585.46 519.79 602.8 514.1 613.57C494.7 650.24 463.15 674.48 423 684.78C415.7 686.65 407.57 688.41 400 688.53C398.34 688.77 396.67 689.01 395.01 689.25C394.01 689.28 393 689.3 392 689.32C388.06 688.2 383.69 688.92 379.5 688.93C370.83 688.96 362.17 688.96 353.5 688.92C348.97 688.91 342.82 687.97 338.97 690.11C336.61 690.42 334.26 690.72 331.9 691.03C329.06 692.24 325.89 692.6 322.92 693.52C316.71 695.45 310.51 698.15 304.9 701.46C290.99 709.67 285.54 720.82 278.03 734.11C277.41 735.57 276.78 737.04 276.16 738.5C277.47 738.89 278.78 739.28 280.09 739.67C290.3 743.44 297.57 753.19 299.38 763.71C299.31 768.59 299.25 773.47 299.18 778.34C298.92 778.4 298.65 778.45 298.38 778.5C298.04 780.47 297.7 782.44 297.36 784.4C296.03 789.69 291.55 794.37 287.24 797.66C276.7 805.7 260.33 806.61 248.9 799.55C246.3 797.94 243.97 794.85 241.9 792.6C237.53 787.84 233.91 781.47 233.45 775C233.52 771.21 233.58 767.43 233.65 763.64C235.36 754.84 241.41 746.31 249.09 741.49C253.23 738.89 258.36 739.19 261.46 735.08C263.25 732.72 263.42 729.58 264.41 726.83C265.73 723.16 267.58 719.49 269.65 716.19C280.82 698.37 296.18 685.24 316.37 678.68C320.68 677.28 325.07 675.69 329.58 675.63C331.89 675.64 334.19 675.66 336.5 675.68C336.69 675.44 336.89 675.2 337.08 674.96C340.05 674.84 343.03 674.72 346 674.6C354.87 676.02 368.26 674.98 377.5 674.61C382.2 674.42 388.06 675.92 392.12 673.9C398.71 674.43 408.46 673.79 414.11 670.77C415.74 670.39 417.37 670.01 419 669.62C422.96 669.98 434.28 666.76 436.47 663.75C442.26 660.26 449.09 658.17 454.95 654.47C474.75 641.95 490.5 625.69 501.4 604.88C505.29 597.46 509.1 588.82 511.16 580.69C512.4 575.79 512.56 570.28 514.71 565.71C514.99 565.64 515.26 565.57 515.54 565.5C515.57 563.67 515.6 561.83 515.63 560C515.64 559.7 515.66 559.41 515.68 559.11C515.97 558.91 516.27 558.7 516.57 558.5C516.57 556.9 516.57 555.3 516.56 553.7C518.52 545.89 527.22 543.34 530.36 551.82ZM578.23 552.76C577.32 558.36 579.07 563.97 580.32 569.5C580.63 569.5 580.94 569.5 581.25 569.5C582.47 572.54 582.98 576.11 583.99 579.37C586.2 586.52 588.68 593.75 591.85 600.54C594.51 606.25 597.68 611.99 601.18 617.23C602.87 619.75 605.03 622.08 606.3 624.77C606.93 626.01 607.57 627.26 608.2 628.5C608.57 628.5 608.94 628.49 609.31 628.49C610.9 630.3 612.5 632.11 614.09 633.92C615.04 636.99 618.91 640.94 622.08 641.79C624.18 643.44 626.28 645.09 628.38 646.74C628.42 647.19 628.46 647.65 628.5 648.11C629.76 648.62 631.03 649.13 632.29 649.64C634.35 650.99 636.41 652.34 638.46 653.7C638.48 654.09 638.49 654.49 638.5 654.89C640.13 655.47 641.76 656.05 643.39 656.63C646.78 658.32 650.17 660.01 653.56 661.7C653.54 662.04 653.52 662.38 653.5 662.72C655.07 663.06 656.63 663.4 658.2 663.75C661.16 664.67 664.11 665.58 667.07 666.5C667.04 666.61 667.02 666.71 666.99 666.82C670.06 669.75 675.77 671.01 680 670.48C680.34 670.56 680.68 670.64 681.02 670.72C681.18 671.02 681.34 671.32 681.5 671.62C683 671.68 684.5 671.74 686.01 671.81C686.17 672.08 686.34 672.35 686.5 672.62C691.97 673.05 697.43 673.48 702.9 673.91C707.19 676.04 714.49 674.75 719.5 674.63C731.31 674.33 743.19 675.22 755 674.44C756 674.56 756.99 674.69 757.99 674.81C758.16 675.08 758.33 675.35 758.5 675.62C760.67 675.61 762.83 675.61 765 675.61C765.3 675.62 765.6 675.63 765.9 675.63C766.1 676.04 766.3 676.44 766.5 676.84C767.99 676.85 769.48 676.86 770.97 676.87C773.37 677.54 775.77 678.22 778.18 678.9C778.28 679.25 778.39 679.6 778.5 679.95C780.36 680.26 782.22 680.56 784.08 680.87C787.49 682.51 790.9 684.15 794.32 685.79C794.38 686.16 794.44 686.54 794.5 686.91C796.09 687.5 797.68 688.09 799.27 688.68C806.97 692.09 820.16 704.94 823.37 712.76C823.64 715.19 824.16 716.5 826.15 717.79C826.6 719.03 827.04 720.26 827.49 721.5C827.75 721.44 828.02 721.38 828.28 721.33C829.62 724.78 830.96 728.24 832.3 731.69C832.47 733.63 832.64 735.56 832.81 737.5C834.93 737.97 837.05 738.45 839.17 738.92C839.28 739.2 839.39 739.49 839.5 739.78C841.03 740.1 842.57 740.43 844.1 740.75C847.78 741.91 851.18 744.6 853.16 747.92C853.75 750.03 854.25 750.79 856.19 751.67C856.84 752.76 857.49 753.84 858.13 754.92C858.64 760.44 861.17 765.69 861.06 771.5C860.94 777.19 857.82 782.04 857.49 787.36C854.3 796.02 843.21 803.67 834 803.42C832.17 803.28 830.33 803.14 828.5 803C828.33 803.29 828.17 803.57 828 803.86C810.84 804.96 795.58 789.25 794.75 772.5C794.1 759.14 802.57 743.71 815.69 739.51C816.73 739.17 817.77 738.84 818.81 738.5C818.54 737.17 818.27 735.83 818 734.5C817.72 734.45 817.44 734.39 817.15 734.34C810.8 720.82 802.35 708.22 789.13 700.42C781.23 695.75 772.59 693.77 763.97 691.08C761.65 690.76 759.33 690.43 757.01 690.11C752.83 687.85 746.34 689.01 741.5 689.03C733.17 689.06 724.83 688.99 716.5 688.94C712.63 688.91 708.68 688.46 705 689.3C696.82 690.09 678.96 686.15 670.47 684.04C623.76 672.42 584.25 635.31 570.51 588.91C567.81 579.8 566.05 570.47 564.63 561.1C564.58 557.64 564.53 554.18 564.49 550.73C568.09 544.34 576.71 545.67 578.23 552.76ZM554.54 628.57C554.47 675.54 554.41 722.52 554.34 769.5C555.59 769.57 556.83 769.65 558.08 769.72C572.46 772.84 584.06 790.66 581.11 805.02C580.16 808.44 579.21 811.86 578.26 815.28C577.34 818.35 575.87 821.56 573.31 823.53C572.92 823.52 572.54 823.51 572.15 823.5C570.6 824.96 569.05 826.42 567.5 827.88C567.48 828.36 567.46 828.83 567.44 829.31C565.06 830.64 562.68 831.98 560.3 833.31C557.7 833.63 555.1 833.95 552.5 834.27C552.31 834.64 552.12 835.01 551.93 835.39C551.62 835.4 551.31 835.41 551 835.42C548.52 835.46 546.04 835.5 543.57 835.54C531.61 835.02 520.76 826.28 516.62 815.26C516 812.01 515.37 808.75 514.74 805.5C514.42 805.3 514.11 805.09 513.79 804.89C510.71 791.1 523.09 772.9 536.73 769.63C540.86 769.88 541.16 768.62 540.49 764.65C540.52 761.76 540.55 758.88 540.58 756C540.59 751.33 540.59 746.67 540.6 742C540.59 735.33 540.59 728.67 540.59 722C540.59 708.67 540.59 695.33 540.59 682C540.59 681.67 540.59 681.33 540.59 681C540.61 663.95 540.62 646.91 540.64 629.86C541.22 620.3 552.64 619.35 554.54 628.57ZM247.35 766.94C246.99 767.12 246.63 767.31 246.27 767.5C246.52 770.83 246.77 774.17 247.02 777.5C247.38 777.61 247.74 777.73 248.1 777.84C248.46 781.44 250.56 785.05 254.19 785.78C255.22 786.44 256.25 787.1 257.28 787.76C257.36 788.17 257.43 788.59 257.5 789.01C258.97 789.32 260.43 789.63 261.9 789.94C264.76 791.7 268.09 791.18 271.5 790.52C271.42 790.26 271.34 790 271.25 789.74C281.3 784.34 280.2 785.64 285.75 775.46C286.08 775.47 286.41 775.49 286.74 775.5C286.65 773.67 286.57 771.83 286.48 770C285.13 755.14 270.3 745.97 256.89 753.42C251.63 756.34 249.44 761.62 247.35 766.94ZM821.26 752.29C820.01 752.52 818.75 752.76 817.5 752.99C817.4 753.37 817.3 753.76 817.2 754.14C813.61 757.27 811.44 760.6 809.32 764.91C808.95 765.11 808.58 765.3 808.21 765.5C808.24 768.83 808.27 772.17 808.29 775.5C808.61 775.49 808.92 775.48 809.23 775.48C809.6 776.53 809.96 777.59 810.33 778.65C810.47 781.31 811.27 782.39 813.07 784.5C813.47 784.51 813.87 784.52 814.27 784.53C817.29 786.26 820.31 787.98 823.33 789.7C823.38 789.97 823.44 790.24 823.5 790.51C828.04 791.32 834.88 791.98 837.84 787.93C844.27 782.17 844.4 782.1 848.13 774C848.42 773.83 848.71 773.67 849 773.5C848.84 771.5 848.67 769.5 848.51 767.5C848.37 767.38 848.23 767.27 848.09 767.15C842.79 754.07 835.56 748.34 821.26 752.29ZM566.75 806.69C567.01 806.63 567.27 806.56 567.54 806.5C567.56 803.5 567.59 800.5 567.62 797.5C567.31 797.35 567.01 797.21 566.71 797.06C563.7 789.69 558.24 783.38 550 781.69C538.73 779.37 527.16 791.41 527.69 802.34C528.3 814.8 542.02 824.88 553.99 820.39C560.7 817.88 563.19 812.21 566.75 806.69Z" fill="#42eeae" fill-rule="evenodd" stroke="#42eeae" stroke-width="0.25" stroke-linejoin="round"/>
<path d="M580.93 238.88C572.98 239.23 564.57 236.18 556.5 235.67C549.34 235.21 541.64 235.32 534.53 236.22C529.68 236.83 524.76 237.88 519.91 237.82C524.13 235.23 530.56 235.35 535.5 235.04C539.85 234.78 544.12 234.05 548.5 234.12C553.67 234.2 558.83 235.01 564 235.29C568.76 235.54 577.3 235.93 580.93 238.88ZM519.91 237.82C519.77 238.06 519.64 238.3 519.5 238.54C516.67 238.97 513.84 239.4 511 239.83C513.44 237.8 516.87 237.43 519.91 237.82ZM580.93 238.88C585.91 238.47 593.23 240.76 597.43 243.64C592.84 243.88 584.64 241.5 580.93 238.88ZM511 239.83C510.84 240.11 510.67 240.39 510.5 240.67C508.24 241.01 505.98 241.36 503.72 241.7C506.08 240.22 508.24 239.67 511 239.83ZM600.44 244.71C602 245.41 603.57 246.11 605.13 246.81C603.59 246.53 602.04 246.25 600.5 245.98C600.48 245.55 600.46 245.13 600.44 244.71ZM553 251.72C549.67 251.78 546.33 251.83 543 251.89C543.17 251.59 543.33 251.3 543.5 251C546.5 251 549.5 251 552.5 251C552.67 251.24 552.83 251.48 553 251.72ZM536 252.41C533.63 252.72 531.26 253.03 528.89 253.34C529.09 252.98 529.3 252.62 529.5 252.26C531.67 252.31 533.83 252.36 536 252.41ZM560 252.4C561.83 252.43 563.67 252.46 565.5 252.49C565.62 252.73 565.74 252.98 565.85 253.22C563.9 252.95 561.95 252.67 560 252.4ZM615.43 251.71C617.09 252.65 618.75 253.59 620.41 254.54C618.77 254.02 617.14 253.49 615.5 252.97C615.48 252.55 615.45 252.13 615.43 251.71ZM271.35 271.66C267.9 271.6 264.45 271.54 261 271.48C264.53 270.19 268.03 270.24 271.35 271.66ZM835 271.56C831.67 271.53 828.33 271.5 825 271.48C828.3 270.38 831.85 269.99 835 271.56ZM285.5 277.79C286.69 278.81 287.88 279.84 289.07 280.86C287.88 280.12 286.69 279.39 285.5 278.65C285.5 278.37 285.5 278.08 285.5 277.79ZM653.18 280.93C654.2 282.1 655.22 283.27 656.25 284.44C655.97 284.46 655.68 284.48 655.4 284.5C654.66 283.31 653.92 282.12 653.18 280.93ZM465.05 282.08C463.52 283.49 461.99 284.89 460.46 286.3C460.48 285.9 460.49 285.5 460.5 285.09C462.02 284.09 463.53 283.09 465.05 282.08ZM858.47 286.72C859.41 288.38 860.34 290.03 861.28 291.69C860.85 291.63 860.42 291.56 859.99 291.5C859.48 289.91 858.98 288.31 858.47 286.72ZM295.14 288.93C295.85 290.45 296.56 291.97 297.27 293.5C296.87 293.5 296.47 293.5 296.07 293.5C295.76 291.98 295.45 290.45 295.14 288.93ZM298.37 297C300.39 301.42 300.8 308.89 298.23 313.08C298.28 307.72 298.32 302.36 298.37 297ZM246.28 299.45C246.27 303.44 246.26 307.42 246.25 311.41C245.96 311.44 245.66 311.47 245.37 311.5C244.22 307.24 244.31 303.81 245.2 299.5C245.56 299.48 245.92 299.47 246.28 299.45ZM848.77 298.94C849.11 299.13 849.45 299.31 849.78 299.5C850.05 302.17 850.32 304.83 850.58 307.5C850.25 307.67 849.93 307.84 849.6 308.01C849.32 304.99 849.05 301.96 848.77 298.94ZM231.59 300C231.6 303.81 231.61 307.62 231.62 311.43C231.4 307.79 231.18 304.14 230.96 300.5C231.17 300.33 231.38 300.17 231.59 300ZM284.8 300.76C285.03 300.68 285.27 300.59 285.5 300.5C285.67 303.17 285.83 305.83 286 308.5C285.71 308.56 285.41 308.62 285.12 308.67C285.01 306.04 284.9 303.4 284.8 300.76ZM863.52 300C863.52 303.81 863.52 307.62 863.51 311.43C863.52 307.62 863.52 303.81 863.52 300ZM810 301.84C810.05 304.77 810.1 307.7 810.14 310.64C809.88 310.59 809.62 310.55 809.36 310.5C809.34 307.83 809.32 305.17 809.31 302.5C809.54 302.28 809.77 302.06 810 301.84ZM795.77 309.04C796.05 309.19 796.32 309.35 796.59 309.5C796.6 311.09 796.61 312.68 796.62 314.27C796.34 312.53 796.06 310.78 795.77 309.04ZM810.14 310.64C812.81 314.38 815.48 318.13 818.15 321.87C813.54 320.95 810.36 315.19 810.14 310.64ZM298.23 313.08C298.33 315.64 298.01 317.38 296.33 319.3C296.7 317.37 297.07 315.43 297.44 313.5C297.71 313.36 297.97 313.22 298.23 313.08ZM818.15 321.87C820.18 322.89 822.22 323.9 824.25 324.91C821.36 324.86 819.49 324.36 818.15 321.87ZM260.61 324.76C263.6 324.86 266.6 324.95 269.59 325.05C269.56 325.37 269.53 325.68 269.5 326C266.5 325.84 263.5 325.68 260.5 325.52C260.54 325.27 260.57 325.01 260.61 324.76ZM824.25 324.91C827.94 324.85 831.63 324.79 835.32 324.73C835.38 325.03 835.44 325.33 835.5 325.63C831.83 325.66 828.17 325.69 824.5 325.72C824.42 325.45 824.33 325.18 824.25 324.91ZM276.37 337.49C273.86 339.82 273.97 341.62 273.77 345C273.51 344.83 273.26 344.67 273 344.5C273.05 342.5 273.09 340.5 273.14 338.5C274.22 338.16 275.29 337.83 276.37 337.49ZM256.84 338.27C257.39 338.16 257.95 338.05 258.5 337.94C258.85 339.46 259.2 340.98 259.55 342.5C259.37 342.65 259.19 342.8 259.01 342.94C258.29 341.39 257.56 339.83 256.84 338.27ZM818.9 338.09C820.94 338.22 820.58 338.02 821.92 339.5C821.47 345.75 822 352.2 822 358.5C822 369.49 821.7 380.49 821.71 391.5C821.72 398.64 823.15 408.58 820.16 415C819.86 399.51 819.9 382.98 820.61 367.5C820.99 359.08 822.83 345.58 818.9 338.09ZM838.18 338.36C834.77 344.59 836.3 352.6 836.36 359.5C836.44 367.17 836.26 374.83 836.3 382.5C836.33 390.64 837.12 399.38 835.39 407.33C835.33 384.72 835.27 362.11 835.22 339.5C836.2 339.12 837.19 338.74 838.18 338.36ZM687.36 339.63C688 341.9 688.65 344.16 689.3 346.43C688.98 346.45 688.66 346.48 688.34 346.5C688.02 344.21 687.69 341.92 687.36 339.63ZM259.03 345.01C259.22 365.12 259.4 385.23 259.59 405.34C257.52 396.61 258.7 386.49 258.74 377.5C258.78 366.88 257.48 355.5 259.03 345.01ZM273.72 346C273.72 364 273.72 382 273.72 400C273.72 382 273.72 364 273.72 346ZM420.27 357.15C419.96 359.21 419.66 361.27 419.35 363.33C419.39 361.38 419.43 359.44 419.48 357.5C419.74 357.38 420 357.27 420.27 357.15ZM419.18 363.87C418.9 366.39 418.62 368.9 418.35 371.41C418.3 369.11 418.26 366.8 418.22 364.5C418.54 364.29 418.86 364.08 419.18 363.87ZM693.36 370C695.11 374.2 694.92 388.65 693.4 393C693.39 385.33 693.37 377.67 693.36 370ZM401.53 373C401.52 378 401.5 383 401.48 388C401.5 383 401.52 378 401.53 373ZM418.08 372.96C418.15 379.59 418.23 386.22 418.31 392.85C416.44 389.96 416.59 376.14 418.08 372.96ZM418.39 394C418.67 396.34 418.94 398.68 419.21 401.02C418.91 400.84 418.62 400.67 418.32 400.5C418.34 398.33 418.37 396.17 418.39 394ZM692.98 396.98C692.8 398.78 692.62 400.59 692.43 402.39C692.62 400.59 692.8 398.78 692.98 396.98ZM419.41 401.61C419.68 403.18 419.95 404.75 420.22 406.32C419.96 406.38 419.7 406.44 419.44 406.5C419.43 404.87 419.42 403.24 419.41 401.61ZM274.37 407.01C275 411.99 275.64 416.98 276.28 421.96C275.96 421.81 275.64 421.65 275.32 421.5C274.7 416.83 274.08 412.17 273.45 407.5C273.76 407.34 274.06 407.17 274.37 407.01ZM835.1 412.89C834.89 414.93 834.69 416.96 834.48 419C834.43 417.17 834.37 415.33 834.32 413.5C834.58 413.3 834.84 413.09 835.1 412.89ZM495.14 422.8C490.95 422.03 486.76 421.25 482.57 420.48C486.89 419.02 492.09 419 495.14 422.8ZM613.37 420.66C610.45 420.63 607.53 420.59 604.61 420.56C607.79 419.28 610.25 419.31 613.37 420.66ZM834.2 420.86C833.84 422.68 833.48 424.49 833.13 426.3C833.13 424.7 833.14 423.1 833.15 421.5C833.5 421.29 833.85 421.08 834.2 420.86ZM619.27 424.8C620.26 426.64 621.24 428.47 622.23 430.31C621.96 430.37 621.68 430.44 621.41 430.5C620.7 428.6 619.98 426.7 619.27 424.8ZM833.13 426.3C832.82 427.95 832.52 429.6 832.22 431.24C832.27 429.66 832.33 428.08 832.38 426.5C832.63 426.43 832.88 426.37 833.13 426.3ZM505.32 442C505.53 442.17 505.74 442.33 505.95 442.5C505.96 444.5 505.97 446.5 505.97 448.5C505.77 448.67 505.56 448.83 505.36 449C505.35 446.67 505.33 444.33 505.32 442ZM282.24 442.74C282.91 444.31 283.59 445.88 284.26 447.45C283.93 447.47 283.6 447.48 283.27 447.5C282.92 445.91 282.58 444.33 282.24 442.74ZM827.29 447.68C826.65 449.23 826 450.78 825.36 452.32C825.71 450.72 826.05 449.11 826.39 447.5C826.69 447.56 826.99 447.62 827.29 447.68ZM286.22 451.81C286.88 453.12 287.54 454.44 288.2 455.75C286.31 454.64 286.34 454.16 286.22 451.81ZM296.28 468.82C297.26 470.07 298.25 471.32 299.23 472.56C297.12 471.77 296.72 471.07 296.28 468.82ZM300.27 473.88C301.26 475.09 302.25 476.3 303.24 477.51C301.18 476.71 300.73 476.07 300.27 473.88ZM458.38 484.7C458.41 489.24 458.45 493.78 458.48 498.32C458.45 493.78 458.41 489.24 458.38 484.7ZM636.47 487C636.52 490 636.57 493 636.62 496C636.57 493 636.52 490 636.47 487ZM652.21 488.04C652.23 490.98 652.24 493.91 652.26 496.85C651.94 496.73 651.61 496.62 651.29 496.5C651.34 493.83 651.39 491.17 651.43 488.5C651.69 488.35 651.95 488.19 652.21 488.04ZM443.11 489.34C443.41 489.39 443.7 489.45 444 489.5C443.68 491.71 443.35 493.92 443.03 496.13C443.06 493.87 443.08 491.6 443.11 489.34ZM653.24 499.68C654.24 501.33 655.24 502.98 656.24 504.62C653.64 503.6 653.32 502.42 653.24 499.68ZM750.5 507.77C750.5 508.1 750.5 508.42 750.5 508.74C748.92 509.11 747.34 509.49 745.76 509.86C747.34 509.16 748.92 508.47 750.5 507.77ZM349 509.77C350.74 510.41 352.48 511.05 354.23 511.69C352.65 511.41 351.08 511.13 349.5 510.85C349.33 510.49 349.16 510.13 349 509.77ZM662.2 509.82C665.26 511.17 668.31 512.53 671.36 513.89C668.41 513.02 665.45 512.15 662.5 511.28C662.4 510.79 662.3 510.3 662.2 509.82ZM745.76 509.86C743.87 512.17 740.37 512.77 737.29 513.69C729.63 515.98 720.99 518.66 713 517.52C723.92 514.97 734.84 512.41 745.76 509.86ZM431.42 510.72C431.45 511.04 431.47 511.37 431.5 511.69C429.86 512.01 428.21 512.32 426.57 512.64C428.18 512 429.8 511.36 431.42 510.72ZM193 513.56C187.2 513.57 181.4 513.58 175.59 513.6C180.47 511.42 188.21 510.55 193 513.56ZM919 513.57C913.19 513.55 907.38 513.54 901.57 513.53C906.45 511.06 914.07 510.87 919 513.57ZM423.75 513.69C419.75 517.46 409.42 518.43 404 517.53C410.58 516.25 417.17 514.97 423.75 513.69ZM671.36 513.89C678.2 515.23 685.05 516.58 691.89 517.93C686.02 518.28 675.96 517.65 671.36 513.89ZM364.24 514.71C365.66 514.82 367.08 514.94 368.5 515.06C368.64 515.33 368.79 515.61 368.93 515.88C367.45 515.77 365.98 515.66 364.5 515.55C364.41 515.27 364.33 514.99 364.24 514.71ZM922.31 514.7C924.74 514.93 926.69 515.66 928.31 517.62C926.37 516.92 924.44 516.22 922.5 515.52C922.44 515.25 922.37 514.97 922.31 514.7ZM368.93 515.88C370.45 515.9 371.98 515.93 373.5 515.95C373.65 516.26 373.79 516.56 373.94 516.87C372.46 516.81 370.98 516.74 369.5 516.68C369.31 516.41 369.12 516.15 368.93 515.88ZM373.94 516.87C376.29 517.1 378.65 517.32 381 517.55C378.83 517.6 376.67 517.66 374.5 517.72C374.31 517.44 374.13 517.15 373.94 516.87ZM381.85 517.72C388.94 517.71 396.04 517.7 403.14 517.68C399.81 519.87 385.32 519.73 381.85 517.72ZM691.89 517.93C698.65 517.84 705.41 517.75 712.16 517.67C708.87 519.8 695.51 519.8 691.89 517.93ZM931.54 519.69C932.46 520.59 933.38 521.5 934.3 522.4C933.97 522.43 933.63 522.47 933.3 522.5C932.7 521.95 932.1 521.4 931.5 520.84C931.51 520.46 931.53 520.08 931.54 519.69ZM912 526.36C913.5 526.36 915 526.36 916.5 526.36C916.44 526.66 916.38 526.96 916.32 527.26C914.88 526.96 913.44 526.66 912 526.36ZM173.27 530.33C171.94 531.66 170.61 532.98 169.29 534.3C169.84 531.68 170.59 530.85 173.27 530.33ZM421.43 530.47C418.96 530.94 416.48 531.42 414 531.9C414.17 531.6 414.33 531.3 414.5 531C416.81 530.82 419.12 530.64 421.43 530.47ZM894.25 534.45C893.2 536.36 892.14 538.27 891.08 540.18C891.76 538.29 892.44 536.39 893.13 534.5C893.5 534.48 893.88 534.47 894.25 534.45ZM482.3 536.55C480.21 536.6 478.12 536.65 476.02 536.7C476.18 536.5 476.34 536.3 476.5 536.11C478.17 535.98 479.83 535.86 481.5 535.73C481.77 536.01 482.03 536.28 482.3 536.55ZM619.3 536.55C617.14 536.56 614.99 536.58 612.84 536.59C614.72 536.19 616.61 535.8 618.5 535.4C618.77 535.79 619.03 536.17 619.3 536.55ZM202.76 537.38C203.12 537.42 203.49 537.46 203.86 537.5C205.79 542.56 205.99 547.32 204.52 552.5C204.25 552.42 203.99 552.35 203.73 552.27C203.8 550.21 204.32 547.7 204.29 545.5C204.25 542.78 203.12 539.99 202.76 537.38ZM217.36 537.84C219.24 544.07 220.61 542.42 226 544.53C219.27 545.26 216.65 545.34 217.36 537.84ZM166.31 540.47C165.99 543.36 165.68 546.25 165.36 549.14C165.03 548.92 164.7 548.71 164.38 548.5C164.63 545.83 164.89 543.17 165.14 540.5C165.53 540.49 165.92 540.48 166.31 540.47ZM877.66 540C877.58 541.17 877.51 542.33 877.43 543.5C874.19 545.1 870.52 545.11 867 544.72C870.8 543.09 875.1 543.81 877.66 540ZM891.08 540.18C891.23 543.13 890.67 546.44 891.12 549.5C891.56 552.49 893.53 555.16 894.11 557.86C889.06 555.52 888.17 544.07 891.08 540.18ZM943.4 540.63C944.7 544.07 944.95 548.86 943.34 552.23C943.36 548.36 943.38 544.5 943.4 540.63ZM233.76 545.77C235.17 546.1 236.59 546.44 238.01 546.77C236.5 546.68 235 546.59 233.5 546.51C233.59 546.26 233.67 546.01 233.76 545.77ZM238.01 546.77C239.81 547.06 241.61 547.35 243.4 547.65C241.77 547.64 240.13 547.64 238.5 547.64C238.34 547.35 238.17 547.06 238.01 546.77ZM246.25 548.73C248.31 549.33 250.37 549.93 252.43 550.53C250.46 550.22 248.48 549.91 246.5 549.59C246.42 549.31 246.33 549.02 246.25 548.73ZM564.49 550.73C564.53 554.18 564.58 557.64 564.63 561.1C562.94 557.96 562.4 553.74 564.49 550.73ZM530.36 551.82C532.79 555.63 530.97 563.44 529.38 567.43C529.71 562.23 530.03 557.03 530.36 551.82ZM578.23 552.76C579.23 558.34 580.24 563.92 581.25 569.5C580.94 569.5 580.63 569.5 580.32 569.5C579.07 563.97 577.32 558.36 578.23 552.76ZM516.56 553.7C516.57 555.3 516.57 556.9 516.57 558.5C516.27 558.7 515.97 558.91 515.68 559.11C515.97 557.31 516.27 555.5 516.56 553.7ZM201.76 556.78C201.36 559.2 201.01 559.83 198.68 560.53C199.7 559.28 200.73 558.03 201.76 556.78ZM270.34 557.75C272.01 558.69 273.67 559.63 275.33 560.57C273.72 560.04 272.11 559.52 270.5 559C270.45 558.58 270.4 558.16 270.34 557.75ZM879.35 560.33C877.57 559.88 875.78 559.43 874 558.98C874.17 558.65 874.33 558.33 874.5 558C876.17 558.28 877.83 558.57 879.5 558.85C879.45 559.35 879.4 559.84 879.35 560.33ZM894.11 557.86C895.82 559.5 897.53 561.15 899.25 562.79C896.36 562.15 894.84 560.71 894.11 557.86ZM872.19 559.36C870.17 559.66 868.15 559.97 866.13 560.27C866.25 560.01 866.38 559.74 866.5 559.47C868.4 559.43 870.29 559.4 872.19 559.36ZM515.63 560C515.6 561.83 515.57 563.67 515.54 565.5C515.26 565.57 514.99 565.64 514.71 565.71C515.02 563.81 515.32 561.9 515.63 560ZM820.88 559.86C819.23 562.15 816.59 563.38 813.63 563.57C816.05 562.33 818.46 561.1 820.88 559.86ZM174.42 562.68C184.35 565.86 185.32 565.73 195.51 562.7C193.14 568.54 176.88 568.53 174.42 562.68ZM853.34 563.33C850.46 564.32 847.57 565.32 844.69 566.31C844.63 565.99 844.56 565.68 844.5 565.37C847.45 564.69 850.39 564.01 853.34 563.33ZM899.25 562.79C901.48 563.83 903.7 564.88 905.93 565.93C902.98 565.96 900.71 565.34 899.25 562.79ZM919 563.9C916.08 567.37 910.75 566.99 906.5 566.75C906.31 566.48 906.12 566.2 905.93 565.93C910.29 565.25 914.65 564.57 919 563.9ZM937.23 566.48C936.2 567.68 935.16 568.87 934.13 570.06C934.83 568.87 935.54 567.69 936.24 566.5C936.57 566.49 936.9 566.49 937.23 566.48ZM529.23 567.96C528.93 569.77 528.64 571.58 528.34 573.38C528.37 571.76 528.39 570.13 528.42 568.5C528.69 568.32 528.96 568.14 529.23 567.96ZM644.43 572.71C646.34 574.39 648.25 576.06 650.16 577.74C648.27 576.52 646.39 575.29 644.5 574.07C644.48 573.62 644.46 573.17 644.43 572.71ZM182 579.41C184.79 579.4 187.58 579.39 190.37 579.38C187.58 579.39 184.79 579.4 182 579.41ZM906.64 579.39C909.5 579.38 912.37 579.37 915.23 579.36C912.37 579.37 909.5 579.38 906.64 579.39ZM311.33 582.78C313 583.71 314.67 584.64 316.34 585.57C314.72 585.04 313.11 584.51 311.5 583.98C311.44 583.58 311.39 583.18 311.33 582.78ZM318.86 586.83C320.28 587.49 321.71 588.16 323.14 588.82C320.76 588.73 320.28 588.69 318.86 586.83ZM431.67 586.78C431.61 587.17 431.56 587.56 431.5 587.95C429.62 588.58 427.74 589.21 425.86 589.84C427.8 588.82 429.73 587.8 431.67 586.78ZM663.4 586.77C666.03 588.1 668.66 589.42 671.29 590.74C668.17 590.72 666.26 589.47 663.5 587.85C663.47 587.49 663.43 587.13 663.4 586.77ZM421.49 591.73C421.5 592.08 421.5 592.43 421.5 592.78C420 593.19 418.5 593.59 417 594C418.5 593.24 420 592.48 421.49 591.73ZM417 594C414.93 595.62 413.34 595.89 410.58 595.74C412.72 595.16 414.86 594.58 417 594ZM756.85 594.73C756.73 595.07 756.62 595.41 756.5 595.75C754.67 596 752.83 596.26 751 596.51C752.95 595.92 754.9 595.33 756.85 594.73ZM745.91 597.68C741.78 600.97 731.15 601.79 726 600.65C732.64 599.66 739.27 598.67 745.91 597.68ZM353.91 598.92C355.73 599.17 357.55 599.41 359.36 599.66C357.74 599.7 356.12 599.73 354.5 599.77C354.3 599.49 354.11 599.21 353.91 598.92ZM399.14 598.75C398.92 599.12 398.71 599.48 398.5 599.85C396.97 599.85 395.44 599.85 393.91 599.84C394.1 599.52 394.3 599.19 394.5 598.87C396.05 598.83 397.59 598.79 399.14 598.75ZM695.49 598.82C697.46 599.17 699.44 599.52 701.42 599.88C699.45 599.79 697.47 599.71 695.5 599.63C695.5 599.36 695.49 599.09 695.49 598.82ZM360.06 599.82C362.04 600.07 364.02 600.32 366 600.57C364.17 600.57 362.33 600.57 360.5 600.58C360.35 600.32 360.21 600.07 360.06 599.82ZM393.91 599.84C393.77 600.07 393.64 600.3 393.5 600.53C391 600.54 388.5 600.55 386 600.56C388.64 600.32 391.27 600.08 393.91 599.84ZM701.42 599.88C703.95 600.12 706.47 600.36 709 600.6C706.5 600.57 704 600.55 701.5 600.52C701.47 600.31 701.45 600.09 701.42 599.88ZM374 601.19C375.67 601.17 377.33 601.15 379 601.13C378.83 601.42 378.67 601.71 378.5 602C377.17 602 375.83 602 374.5 602C374.33 601.73 374.17 601.46 374 601.19ZM714.88 601.02C716.93 601.01 718.97 601 721.02 600.98C718.97 601 716.93 601.01 714.88 601.02ZM755.37 611.35C752.67 612 749.97 612.66 747.27 613.31C747.35 613.02 747.42 612.73 747.5 612.44C750.12 612.08 752.74 611.71 755.37 611.35ZM360.59 615.51C362.23 615.34 363.86 615.17 365.5 615C365.67 615.29 365.83 615.59 366 615.88C364.2 615.76 362.39 615.63 360.59 615.51ZM394 615.39C393.83 615.6 393.67 615.81 393.5 616.02C390.96 616.07 388.42 616.11 385.88 616.16C388.32 614.79 391.11 614.86 394 615.39ZM704 615.51C705.7 615.66 707.41 615.82 709.11 615.97C707.41 615.82 705.7 615.66 704 615.51ZM734 615.48C731.66 615.7 729.32 615.92 726.99 616.15C727.16 615.92 727.33 615.7 727.5 615.48C729.67 615.48 731.83 615.48 734 615.48ZM371 616.39C375 616.38 379 616.38 383 616.37C379 616.38 375 616.38 371 616.39ZM715 616.42C718 616.4 721 616.38 724 616.36C721 616.38 718 616.4 715 616.42ZM606.3 624.77C607.3 626.01 608.31 627.25 609.31 628.49C608.94 628.49 608.57 628.5 608.2 628.5C607.57 627.26 606.93 626.01 606.3 624.77ZM554.54 628.57C556.56 637.18 555.07 653.06 555.07 662.5C555.07 685.16 555.31 707.84 555.03 730.5C554.92 738.83 555.09 747.17 555 755.5C554.94 760.73 554.35 765.67 558.08 769.72C556.83 769.65 555.59 769.57 554.34 769.5C554.41 722.52 554.47 675.54 554.54 628.57ZM540.64 629.86C540.62 646.91 540.61 663.95 540.59 681C540.61 663.95 540.62 646.91 540.64 629.86ZM614.09 633.92C616.76 636.54 619.42 639.16 622.08 641.79C618.91 640.94 615.04 636.99 614.09 633.92ZM628.38 646.74C629.69 647.71 630.99 648.67 632.29 649.64C631.03 649.13 629.76 648.62 628.5 648.11C628.46 647.65 628.42 647.19 628.38 646.74ZM638.46 653.7C640.1 654.67 641.75 655.65 643.39 656.63C641.76 656.05 640.13 655.47 638.5 654.89C638.49 654.49 638.48 654.09 638.46 653.7ZM653.56 661.7C655.11 662.38 656.65 663.07 658.2 663.75C656.63 663.4 655.07 663.06 653.5 662.72C653.52 662.38 653.54 662.04 653.56 661.7ZM436.47 663.75C434.28 666.76 422.96 669.98 419 669.62C424.82 667.67 430.64 665.71 436.47 663.75ZM666.99 666.82C671.33 668.04 675.66 669.26 680 670.48C675.77 671.01 670.06 669.75 666.99 666.82ZM414.11 670.77C408.46 673.79 398.71 674.43 392.12 673.9C399.45 672.86 406.78 671.82 414.11 670.77ZM681.02 670.72C682.68 671.08 684.34 671.44 686.01 671.81C684.5 671.74 683 671.68 681.5 671.62C681.34 671.32 681.18 671.02 681.02 670.72ZM686.01 671.81C691.5 672.22 697 672.64 702.5 673.06C702.63 673.34 702.77 673.63 702.9 673.91C697.43 673.48 691.97 673.05 686.5 672.62C686.34 672.35 686.17 672.08 686.01 671.81ZM392.12 673.9C388.06 675.92 382.2 674.42 377.5 674.61C368.26 674.98 354.87 676.02 346 674.6C361.37 674.37 376.75 674.14 392.12 673.9ZM702.9 673.91C720.27 674.09 737.63 674.26 755 674.44C743.19 675.22 731.31 674.33 719.5 674.63C714.49 674.75 707.19 676.04 702.9 673.91ZM337.08 674.96C336.89 675.2 336.69 675.44 336.5 675.68C334.19 675.66 331.89 675.64 329.58 675.63C332.08 675.41 334.58 675.18 337.08 674.96ZM757.99 674.81C760.16 674.82 762.33 674.83 764.5 674.84C764.67 675.09 764.83 675.35 765 675.61C762.83 675.61 760.67 675.61 758.5 675.62C758.33 675.35 758.16 675.08 757.99 674.81ZM765.9 675.63C767.44 675.74 768.97 675.85 770.5 675.96C770.66 676.26 770.81 676.56 770.97 676.87C769.48 676.86 767.99 676.85 766.5 676.84C766.3 676.44 766.1 676.04 765.9 675.63ZM770.97 676.87C773.88 676.61 776.37 676.76 778.18 678.9C775.77 678.22 773.37 677.54 770.97 676.87ZM778.18 678.9C780.15 679.55 782.11 680.21 784.08 680.87C782.22 680.56 780.36 680.26 778.5 679.95C778.39 679.6 778.28 679.25 778.18 678.9ZM540.59 682C540.59 695.33 540.59 708.67 540.59 722C540.59 708.67 540.59 695.33 540.59 682ZM794.32 685.79C795.97 686.75 797.62 687.72 799.27 688.68C797.68 688.09 796.09 687.5 794.5 686.91C794.44 686.54 794.38 686.16 794.32 685.79ZM400 688.53C398.34 688.77 396.67 689.01 395.01 689.25C396.67 689.01 398.34 688.77 400 688.53ZM392 689.32C374.32 689.59 356.64 689.85 338.97 690.11C342.82 687.97 348.97 688.91 353.5 688.92C362.17 688.96 370.83 688.96 379.5 688.93C383.69 688.92 388.06 688.2 392 689.32ZM705 689.3C708.68 688.46 712.63 688.91 716.5 688.94C724.83 688.99 733.17 689.06 741.5 689.03C746.34 689.01 752.83 687.85 757.01 690.11C739.68 689.84 722.34 689.57 705 689.3ZM338.97 690.11C338.81 690.4 338.66 690.68 338.5 690.97C336.3 690.99 334.1 691.01 331.9 691.03C334.26 690.72 336.61 690.42 338.97 690.11ZM757.01 690.11C759.33 690.43 761.65 690.76 763.97 691.08C761.81 691.04 759.66 691 757.5 690.95C757.34 690.67 757.18 690.39 757.01 690.11ZM823.37 712.76C824.3 714.43 825.22 716.11 826.15 717.79C824.16 716.5 823.64 715.19 823.37 712.76ZM826.15 717.79C826.86 718.97 827.57 720.15 828.28 721.33C828.02 721.38 827.75 721.44 827.49 721.5C827.04 720.26 826.6 719.03 826.15 717.79ZM832.3 731.69C834.47 734.73 836.25 736.77 839.17 738.92C837.05 738.45 834.93 737.97 832.81 737.5C832.64 735.56 832.47 733.63 832.3 731.69ZM278.03 734.11C278.19 735.74 278.34 737.37 278.5 739C279.03 739.22 279.56 739.45 280.09 739.67C278.78 739.28 277.47 738.89 276.16 738.5C276.78 737.04 277.41 735.57 278.03 734.11ZM817.15 734.34C817.44 734.39 817.72 734.45 818 734.5C818.27 735.83 818.54 737.17 818.81 738.5C817.77 738.84 816.73 739.17 815.69 739.51C815.98 739.17 816.28 738.84 816.58 738.5C816.77 737.11 816.96 735.73 817.15 734.34ZM839.17 738.92C840.81 739.53 842.46 740.14 844.1 740.75C842.57 740.43 841.03 740.1 839.5 739.78C839.39 739.49 839.28 739.2 839.17 738.92ZM540.6 742C540.59 746.67 540.59 751.33 540.58 756C540.59 751.33 540.59 746.67 540.6 742ZM853.16 747.92C854.17 749.17 855.18 750.42 856.19 751.67C854.25 750.79 853.75 750.03 853.16 747.92ZM821.26 752.29C819.91 752.91 818.56 753.52 817.2 754.14C817.3 753.76 817.4 753.37 817.5 752.99C818.75 752.76 820.01 752.52 821.26 752.29ZM858.13 754.92C863.95 761.81 864.14 781.02 857.49 787.36C857.82 782.04 860.94 777.19 861.06 771.5C861.17 765.69 858.64 760.44 858.13 754.92ZM233.65 763.64C233.58 767.43 233.52 771.21 233.45 775C232.54 771.34 232.46 767.04 233.65 763.64ZM299.38 763.71C300.96 768.55 301.23 773.84 299.18 778.34C299.25 773.47 299.31 768.59 299.38 763.71ZM540.49 764.65C541.16 768.62 540.86 769.88 536.73 769.63C537.98 767.97 539.23 766.31 540.49 764.65ZM809.32 764.91C809.29 768.43 809.26 771.95 809.23 775.48C808.92 775.48 808.61 775.49 808.29 775.5C808.27 772.17 808.24 768.83 808.21 765.5C808.58 765.3 808.95 765.11 809.32 764.91ZM247.35 766.94C247.6 770.57 247.85 774.21 248.1 777.84C247.74 777.73 247.38 777.61 247.02 777.5C246.77 774.17 246.52 770.83 246.27 767.5C246.63 767.31 246.99 767.12 247.35 766.94ZM848.09 767.15C848.23 767.27 848.37 767.38 848.51 767.5C848.67 769.5 848.84 771.5 849 773.5C848.71 773.67 848.42 773.83 848.13 774C848.12 771.72 848.1 769.43 848.09 767.15ZM286.48 770C286.57 771.83 286.65 773.67 286.74 775.5C286.41 775.49 286.08 775.47 285.75 775.46C286 773.64 286.24 771.82 286.48 770ZM248.1 777.84C250.13 780.49 252.16 783.13 254.19 785.78C250.56 785.05 248.46 781.44 248.1 777.84ZM299.18 778.34C298.57 780.36 297.97 782.38 297.36 784.4C297.7 782.44 298.04 780.47 298.38 778.5C298.65 778.45 298.92 778.4 299.18 778.34ZM810.33 778.65C811.64 780.61 812.96 782.57 814.27 784.53C813.87 784.52 813.47 784.51 813.07 784.5C811.27 782.39 810.47 781.31 810.33 778.65ZM257.28 787.76C258.82 788.48 260.36 789.21 261.9 789.94C260.43 789.63 258.97 789.32 257.5 789.01C257.43 788.59 257.36 788.17 257.28 787.76ZM837.84 787.93C834.88 791.98 828.04 791.32 823.5 790.51C823.44 790.24 823.38 789.97 823.33 789.7C825.3 789.52 827.4 789.84 829.5 789.73C832.4 789.57 835.02 788.42 837.84 787.93ZM261.9 789.94C265.02 789.87 268.13 789.8 271.25 789.74C271.34 790 271.42 790.26 271.5 790.52C268.09 791.18 264.76 791.7 261.9 789.94ZM566.71 797.06C567.01 797.21 567.31 797.35 567.62 797.5C567.59 800.5 567.56 803.5 567.54 806.5C567.27 806.56 567.01 806.63 566.75 806.69C566.74 803.48 566.72 800.27 566.71 797.06ZM834 803.42C832 803.56 830 803.71 828 803.86C828.17 803.57 828.33 803.29 828.5 803C830.33 803.14 832.17 803.28 834 803.42ZM513.79 804.89C514.11 805.09 514.42 805.3 514.74 805.5C515.37 808.75 516 812.01 516.62 815.26C514.26 812.3 513.8 808.63 513.79 804.89ZM581.11 805.02C581.16 808.81 580.74 812.4 578.26 815.28C579.21 811.86 580.16 808.44 581.11 805.02ZM573.31 823.53C572.28 826.07 569.94 828.28 567.44 829.31C567.46 828.83 567.48 828.36 567.5 827.88C569.05 826.42 570.6 824.96 572.15 823.5C572.54 823.51 572.92 823.52 573.31 823.53ZM560.3 833.31C557.51 834 554.72 834.69 551.93 835.39C552.12 835.01 552.31 834.64 552.5 834.27C555.1 833.95 557.7 833.63 560.3 833.31ZM543.57 835.54C546.04 835.5 548.52 835.46 551 835.42C550.83 835.63 550.67 835.83 550.5 836.04C548.19 835.87 545.88 835.71 543.57 835.54Z" fill="#519c7e" fill-rule="evenodd" stroke="#519c7e" stroke-width="0.25" stroke-linejoin="round"/>
</svg>